HIERARCHY
ROOT Hips
{
	OFFSET	0.000000	0.000000	0.000000
	CHANNELS 6 Xposition Yposition Zposition Zrotation Xrotation Yrotation
	JOINT LeftHip
	{
		OFFSET	4.740440	-3.195970	-0.322709
		CHANNELS 3 Zrotation Xrotation Yrotation
		JOINT LeftKnee
		{
			OFFSET	-1.605680	-15.592300	1.005510
			CHANNELS 3 Zrotation Xrotation Yrotation
			JOINT LeftAnkle
			{
				OFFSET	-0.632401	-16.421000	-1.413730
				CHANNELS 3 Zrotation Xrotation Yrotation
				End Site
				{
					OFFSET	0.008423	-2.933000	-1.776750
				}
			}
		}
	}
	JOINT RightHip
	{
		OFFSET	-4.740440	-3.195970	-0.322709
		CHANNELS 3 Zrotation Xrotation Yrotation
		JOINT RightKnee
		{
			OFFSET	1.605680	-15.592300	1.005510
			CHANNELS 3 Zrotation Xrotation Yrotation
			JOINT RightAnkle
			{
				OFFSET	0.632401	-16.421000	-1.413730
				CHANNELS 3 Zrotation Xrotation Yrotation
				End Site
				{
					OFFSET	-0.008423	-2.933000	-1.776750
				}
			}
		}
	}
	JOINT Chest
	{
		OFFSET	0.000000	3.468200	0.078401
		CHANNELS 3 Zrotation Xrotation Yrotation
		JOINT LeftCollar
		{
			OFFSET	3.857650	15.070700	-0.011583
			CHANNELS 3 Zrotation Xrotation Yrotation
			JOINT LeftShoulder
			{
				OFFSET	3.979720	-1.940530	-0.165223
				CHANNELS 3 Zrotation Xrotation Yrotation
				JOINT LeftElbow
				{
					OFFSET	0.615844	-10.986600	-0.673886
					CHANNELS 3 Zrotation Xrotation Yrotation
					JOINT LeftWrist
					{
						OFFSET	0.826843	-10.854500	1.034220
						CHANNELS 3 Zrotation Xrotation Yrotation
						End Site
						{
							OFFSET	-1.679080	-8.456540	0.936217
						}
					}
				}
			}
		}
		JOINT RightCollar
		{
			OFFSET	-3.857650	15.070700	-0.011583
			CHANNELS 3 Zrotation Xrotation Yrotation
			JOINT RightShoulder
			{
				OFFSET	-3.979720	-1.940530	-0.165223
				CHANNELS 3 Zrotation Xrotation Yrotation
				JOINT RightElbow
				{
					OFFSET	-0.615845	-10.986600	-0.673886
					CHANNELS 3 Zrotation Xrotation Yrotation
					JOINT RightWrist
					{
						OFFSET	-0.826843	-10.854500	1.034220
						CHANNELS 3 Zrotation Xrotation Yrotation
						End Site
						{
							OFFSET	1.679080	-8.456540	0.936217
						}
					}
				}
			}
		}
		JOINT Neck
		{
			OFFSET	0.000000	15.101400	0.055730
			CHANNELS 3 Zrotation Xrotation Yrotation
			JOINT Head
			{
				OFFSET	0.000000	4.185120	1.488260
				CHANNELS 3 Zrotation Xrotation Yrotation
				End Site
				{
					OFFSET	0.000000	7.773420	-0.106016
				}
			}
		}
	}
}
MOTION
Frames:    7
Frame Time: 0.016667
4.473130	37.451981	-5.088637	2.608920	-5.921885	-16.340925	-7.035282	2.920830	3.025610	-4.765594	0.842184	6.377425	9.402535	-0.431259	7.037727	-15.441082	-11.670739	-0.773291	-0.837909	21.470280	5.605460	9.179097	-5.392402	3.561268	-4.247580	4.743918	4.574747	-6.283656	4.021300	0.342719	1.617839	-4.238287	1.581254	2.201588	1.878417	1.516570	0.312696	0.093987	1.250750	-4.518247	3.264594	-1.042196	1.470263	-3.222861	0.102699	1.215651	0.022458	-0.479153	1.521378	-1.456838	-3.799187	-3.142479	9.515082	-0.265113	-1.075212	1.811171	-16.805241	
4.471637	37.452435	-5.085399	2.608854	-5.921257	-16.308662	-7.032175	2.929243	3.012744	-4.766795	0.838840	6.357742	9.402535	-0.431259	7.037727	-15.436712	-11.669156	-0.768617	-0.834853	21.477089	5.568545	9.179097	-5.392402	3.561268	-4.252465	4.745621	4.566623	-6.281932	4.019203	0.346033	1.624352	-4.235606	1.600656	2.195560	1.876226	1.493561	0.315804	0.084103	1.262839	-4.526778	3.267813	-1.021859	1.483542	-3.224155	0.098497	1.207339	0.018038	-0.476414	1.524901	-1.439675	-3.794233	-3.146997	9.504451	-0.217636	-1.066298	1.822482	-16.842621	
4.471142	37.452606	-5.084303	2.608632	-5.920973	-16.297792	-7.030910	2.932074	3.008436	-4.767201	0.837707	6.351061	9.402535	-0.431259	7.037727	-15.434995	-11.668596	-0.767214	-0.834856	21.478811	5.563817	9.179338	-5.393115	3.554056	-4.255119	4.746163	4.567659	-6.284500	4.015410	0.361610	1.629858	-4.231824	1.589341	2.188920	1.874711	1.501236	0.321468	0.081247	1.251820	-4.528378	3.269018	-1.018596	1.488143	-3.224484	0.097347	1.204557	0.016524	-0.475830	1.526084	-1.433898	-3.792614	-3.150332	9.498836	-0.193093	-1.059246	1.828685	-16.867126	
4.469719	37.453209	-5.081031	2.606962	-5.919726	-16.265676	-7.026073	2.940433	2.995899	-4.768422	0.834301	6.331001	9.402535	-0.431259	7.037727	-15.427607	-11.666901	-0.762970	-0.836041	21.483776	5.550425	9.179942	-5.395305	3.532171	-4.262164	4.747647	4.571527	-6.277901	4.014086	0.353380	1.636448	-4.229112	1.624549	2.182948	1.872134	1.462789	0.323114	0.066689	1.278525	-4.534547	3.271827	-1.007962	1.503399	-3.224642	0.092644	1.196310	0.011988	-0.474400	1.529442	-1.416139	-3.786144	-3.142155	9.493911	-0.191870	-1.057708	1.834118	-16.872816	
4.469242	37.453423	-5.079957	2.606355	-5.919300	-16.255281	-7.024405	2.943246	2.992256	-4.768847	0.833127	6.324076	9.402535	-0.431259	7.037727	-15.424987	-11.666425	-0.761168	-0.836343	21.485508	5.544950	9.180122	-5.395945	3.525766	-4.264497	4.748117	4.573148	-6.280282	4.010414	0.368276	1.642136	-4.225661	1.629025	2.176619	1.870305	1.454870	0.327235	0.059655	1.281337	-4.536744	3.272754	-1.004179	1.508636	-3.224684	0.090614	1.193518	0.010485	-0.473591	1.530574	-1.410184	-3.783996	-3.141064	9.491220	-0.185259	-1.060356	1.836324	-16.863848	
4.467779	37.454010	-5.076659	2.604914	-5.918134	-16.223032	-7.019755	2.951780	2.980187	-4.770108	0.829618	6.303427	9.402535	-0.431259	7.037727	-15.418457	-11.664332	-0.759049	-0.837279	21.490324	5.530129	9.180646	-5.397802	3.507200	-4.271804	4.749605	4.576982	-6.272779	4.008564	0.359130	1.647379	-4.221929	1.633819	2.170437	1.868511	1.446585	0.331265	0.052825	1.283957	-4.543583	3.275682	-0.991831	1.524580	-3.225003	0.083510	1.185138	0.005970	-0.471175	1.533949	-1.392303	-3.777431	-3.137887	9.483056	-0.164841	-1.049110	1.846013	-16.901951	
4.467285	37.454178	-5.075546	2.604789	-5.917871	-16.211872	-7.018589	2.954588	2.975416	-4.770496	0.828516	6.296937	9.402535	-0.431259	7.037727	-15.416558	-11.663364	-0.759307	-0.837985	21.491776	5.525672	9.180815	-5.398400	3.501209	-4.274369	4.750149	4.577238	-6.274991	4.004548	0.374290	1.652670	-4.218184	1.638163	2.164216	1.866729	1.438663	0.335410	0.046318	1.285490	-4.546443	3.276461	-0.986779	1.530219	-3.224952	0.080782	1.182313	0.004463	-0.470187	1.531334	-1.375584	-3.743959	-3.141871	9.477014	-0.136844	-1.042438	1.852543	-16.926376	
